<svg width="189" height="248" viewBox="0 0 189 248" fill="none" xmlns="http://www.w3.org/2000/svg">
    <rect x="13" width="176" height="20" fill="#844D08" />
    <rect x="20" width="248" height="20" transform="rotate(90 20 0)" fill="#844D08" />
    <g filter="url(#filter0_d_162_359)">
        <path
            d="M19 20H189C161.995 25.1359 147.547 29.0718 131.767 51.35C104.944 57.952 90.8267 64.4647 77.3667 96.38C56.226 107.923 49.0304 117.627 48.4667 145.4C37.4037 164.539 34.4075 176.322 39.4 200.69C34.5764 217.851 33.8615 228.164 36.5667 248H19V20Z"
            fill="#A35E09" />
    </g>
    <path d="M13 228H34.9429C35.1651 235.703 35.3993 240.059 37 248H13V228Z" fill="#844D08" />
    <defs>
        <filter id="filter0_d_162_359" x="19" y="20" width="170" height="228" filterUnits="userSpaceOnUse"
            color-interpolation-filters="sRGB">
            <feFlood flood-opacity="0" result="BackgroundImageFix" />
            <feColorMatrix in="SourceAlpha" type="matrix" values="0 0 0 0 0 0 0 0 0 0 0 0 0 0 0 0 0 0 127 0"
                result="hardAlpha" />
            <feOffset />
            <feComposite in2="hardAlpha" operator="out" />
            <feColorMatrix type="matrix" values="0 0 0 0 0.471238 0 0 0 0 0.275255 0 0 0 0 0.0327249 0 0 0 1 0" />
            <feBlend mode="normal" in2="BackgroundImageFix" result="effect1_dropShadow_162_359" />
            <feBlend mode="normal" in="SourceGraphic" in2="effect1_dropShadow_162_359" result="shape" />
        </filter>
    </defs>
</svg>