<svg width="244" height="213" viewBox="0 0 244 213" fill="none" xmlns="http://www.w3.org/2000/svg">
    <path
        d="M154.777 65.2074C191.182 92.7596 207.069 133.03 190.262 155.155C173.454 177.279 130.316 172.879 93.9107 145.327C57.5051 117.775 41.6179 77.5039 58.4256 55.3795C75.2332 33.2552 118.371 37.6553 154.777 65.2074Z"
        fill="#454545" />
    <path
        d="M174.934 142.437C149.311 180.268 107.561 196.787 81.6844 179.333C55.8076 161.879 55.6021 117.061 81.2255 79.2289C106.849 41.3972 148.598 24.8781 174.475 42.3324C200.352 59.7867 200.557 104.605 174.934 142.437Z"
        fill="#454545" />
    <path
        d="M130.792 151.219C75.0888 162.186 26.1399 151.743 21.4614 127.893C16.7828 104.044 58.1464 75.8206 113.849 64.8538C169.552 53.8871 218.501 64.3302 223.18 88.1793C227.858 112.028 186.495 140.252 130.792 151.219Z"
        fill="#454545" />
</svg>