<svg width="556" height="804" viewBox="0 0 556 804" fill="none" xmlns="http://www.w3.org/2000/svg">
    <path
        d="M515.148 775.347C515.553 781.293 507.979 784.128 504.38 779.378L474.045 739.342C471.181 735.561 473.629 730.109 478.357 729.737L505.82 727.577C509.148 727.315 512.049 729.82 512.276 733.151L515.148 775.347Z"
        fill="#454545" />
    <path
        d="M40.064 775.343C39.6593 781.289 47.2332 784.124 50.8325 779.374L81.1669 739.338C84.0313 735.557 81.5836 730.105 76.8551 729.733L49.3927 727.573C46.0646 727.311 43.1628 729.816 42.9361 733.147L40.064 775.343Z"
        fill="#454545" />
    <rect x="34.9565" width="485.397" height="39.9504" fill="#454545" />
    <path d="M34.9566 0L65.2299 40.4498H4.6833L34.9566 0Z" fill="#454545" />
    <path d="M520.354 0L550.627 40.4498H490.081L520.354 0Z" fill="#454545" />
    <rect x="462" y="34" width="50" height="705" fill="#454545" />
    <rect x="83" y="34" width="389" height="56" fill="#454545" />
    <rect x="88" y="489" width="379" height="250" fill="#454545" />
    <rect x="43" y="34" width="50" height="705" fill="#454545" />
</svg>